<svg width="87" height="86" viewBox="0 0 87 86" fill="none" xmlns="http://www.w3.org/2000/svg">
<g clip-path="url(#clip0_30_11)">
<path d="M30.0689 46.5168C30.0689 43.2795 30.0331 40.2238 30.08 37.171C30.1214 34.4116 32.3182 32.1723 35.0423 32.1136C40.9429 31.9822 46.8518 31.985 52.7552 32.1136C55.9871 32.1835 57.5326 34.0175 57.5492 37.375C57.5823 44.1405 57.5574 50.906 57.5574 58.0238C61.6172 58.0238 65.4259 58.0238 69.2373 58.0238C71.6494 58.0238 74.0616 57.9874 76.4737 58.0349C80.183 58.1104 81.8721 59.7934 81.9079 63.548C81.9576 68.8877 81.9217 74.2246 81.9217 79.5643C81.9217 80.5316 81.9217 81.5017 81.9217 82.7989C83.4783 82.7989 84.7396 82.6227 85.9153 82.866C86.0008 82.8827 86.0809 82.9107 86.1609 82.947C87.1959 83.4195 87.2814 84.8732 86.379 85.5722C86.2327 85.6868 86.0781 85.7902 85.9181 85.8797C85.5041 86.1089 84.8693 85.9412 84.3339 85.9412C57.356 85.9412 30.3753 85.9412 3.39736 85.9412C2.6853 85.9412 1.86562 86.1089 1.28604 85.8154C0.703703 85.5163 0.107566 84.781 0.00545056 84.1548C-0.0525071 83.7941 0.814098 82.9638 1.344 82.8883C2.63839 82.701 3.97693 82.8268 5.55007 82.8268C5.61079 81.5856 5.6991 80.6266 5.70186 79.6677C5.7129 70.7999 5.70186 61.9321 5.71014 53.0643C5.71566 48.2334 7.21704 46.6902 11.9282 46.6762C17.0202 46.6594 22.1122 46.6762 27.2042 46.665C28.0735 46.665 28.9401 46.5811 30.0717 46.5252L30.0689 46.5168ZM54.091 82.6227C54.1848 82.1866 54.3173 81.8484 54.3173 81.5129C54.3311 66.8804 54.3173 52.2507 54.3532 37.6183C54.3587 35.5914 53.2354 35.2475 51.5961 35.2587C46.6034 35.2895 41.608 35.3761 36.6181 35.2252C34.0708 35.1469 33.2069 35.994 33.229 38.6359C33.3394 52.4548 33.2787 66.2738 33.287 80.0899C33.287 80.8811 33.3642 81.675 33.4167 82.62H54.0938L54.091 82.6227ZM29.8647 82.6227V49.9247C23.8012 49.9247 17.9309 50.0086 12.0662 49.8856C9.61539 49.8353 8.76258 50.7495 8.79018 53.2096C8.88126 62.2396 8.82054 71.2696 8.83434 80.2996C8.83434 81.0712 8.95853 81.8456 9.02753 82.6255H29.8675L29.8647 82.6227ZM78.7865 82.6451C78.7865 76.0166 78.8031 69.6984 78.7755 63.3802C78.7672 61.5491 77.5611 61.2472 76.0349 61.2583C71.0367 61.3003 66.0358 61.2751 61.0377 61.2779C59.9254 61.2779 58.8104 61.2779 57.7341 61.2779V82.6451H78.7865Z" fill="black"/>
<path d="M50.2466 26.0221C49.7636 26.0221 49.3138 25.8963 48.8888 25.6698C47.3405 24.8451 45.7922 24.0232 44.2494 23.1901C43.9127 23.0084 43.6091 23.0028 43.2669 23.1873C41.713 24.026 40.1537 24.8619 38.5889 25.6782C37.5429 26.2234 36.5107 26.1535 35.564 25.449C34.6284 24.75 34.2696 23.78 34.4601 22.6198C34.7554 20.8166 35.07 19.0134 35.3736 17.2102C35.4177 16.9418 35.3267 16.7041 35.1362 16.514C34.2227 15.6082 33.3037 14.708 32.3901 13.8023C31.9679 13.3829 31.5235 12.9831 31.1289 12.5358C30.3754 11.6831 30.1905 10.6851 30.5797 9.61436C30.9716 8.53244 31.7719 7.92299 32.8952 7.75525C34.4131 7.5288 35.9338 7.30515 37.4545 7.08149C37.6671 7.05074 37.8768 7.0144 38.0893 6.99203C38.4371 6.95289 38.6827 6.78515 38.8372 6.46086C39.6128 4.85895 40.3911 3.25703 41.1749 1.66071C41.6965 0.592772 42.5576 0.00847995 43.7305 9.29827e-05C44.9007 -0.00829399 45.7811 0.550838 46.311 1.61878C47.1059 3.22628 47.8842 4.83938 48.6652 6.45247C48.8253 6.78236 49.0737 6.94171 49.4297 6.99203C51.2291 7.25203 53.0341 7.49525 54.828 7.79998C55.9099 7.98449 56.6385 8.67222 56.9725 9.72898C57.3119 10.7997 57.1077 11.7922 56.3239 12.5945C55.093 13.8554 53.8317 15.0855 52.5649 16.31C52.2089 16.6538 52.0875 17.0061 52.1785 17.5009C52.4959 19.237 52.7885 20.9787 53.07 22.7204C53.3487 24.4453 51.9936 26.0193 50.2494 26.0193L50.2466 26.0221ZM55.0682 10.6292C55.0709 10.2238 54.7977 9.88833 54.403 9.82124C54.2926 9.80167 54.1795 9.78769 54.0663 9.77092C52.4407 9.53049 50.8179 9.28447 49.1896 9.05523C48.0856 8.90147 47.2935 8.34233 46.8023 7.32192C46.0378 5.72839 45.2567 4.14326 44.484 2.55532C44.3625 2.30371 44.1804 2.13598 43.9044 2.08286C43.4959 2.00458 43.1896 2.19189 42.9771 2.62801C42.1933 4.2467 41.4122 5.86818 40.6118 7.47848C40.1758 8.35631 39.4499 8.87351 38.4895 9.01888C36.6983 9.29006 34.9044 9.55006 33.1105 9.81844C32.8014 9.86317 32.5944 10.0449 32.4867 10.3356C32.3736 10.6376 32.4315 10.9115 32.644 11.1548C32.7103 11.2302 32.7848 11.3001 32.8566 11.3728C34.1096 12.6113 35.3708 13.8414 36.6155 15.0883C37.1509 15.6222 37.4269 16.2904 37.4131 17.0508C37.4049 17.4869 37.3193 17.9231 37.2503 18.3564C36.9964 19.8968 36.7342 21.4344 36.472 22.972C36.4113 23.3271 36.5245 23.601 36.8087 23.8023C37.082 23.998 37.369 23.9896 37.6643 23.8303C39.2236 22.9972 40.783 22.1725 42.3395 21.3393C43.2945 20.8277 44.2411 20.8389 45.1905 21.3505C46.736 22.178 48.2843 23 49.8326 23.8275C50.139 23.9924 50.4371 23.998 50.7213 23.7911C51.0001 23.5871 51.0939 23.3019 51.036 22.9664C50.7406 21.2275 50.4509 19.4858 50.1473 17.7469C49.9706 16.7405 50.1804 15.8459 50.8786 15.0938C51.1464 14.8059 51.4361 14.5375 51.7149 14.2635C52.7471 13.2431 53.782 12.2255 54.8142 11.2051C54.9743 11.0457 55.0681 10.8584 55.0709 10.6292H55.0682Z" fill="black"/>
</g>
<defs>
<clipPath id="clip0_30_11">
<rect width="87" height="86" fill="white"/>
</clipPath>
</defs>
</svg>
