<svg width="41" height="48" viewBox="0 0 41 48" fill="none" xmlns="http://www.w3.org/2000/svg">
<path d="M36.4444 0C37.6527 0 38.8114 0.559745 39.6657 1.5561C40.52 2.55245 41 3.9038 41 5.31285V42.5028C41 43.9119 40.52 45.2632 39.6657 46.2596C38.8114 47.2559 37.6527 47.8157 36.4444 47.8157H4.55556C3.34735 47.8157 2.18862 47.2559 1.33429 46.2596C0.479959 45.2632 0 43.9119 0 42.5028V5.31285C0 3.9038 0.479959 2.55245 1.33429 1.5561C2.18862 0.559745 3.34735 0 4.55556 0H36.4444ZM35.3056 41.1746V27.0956C35.3056 24.7988 34.5232 22.5961 33.1307 20.972C31.7381 19.348 29.8494 18.4356 27.88 18.4356C25.9439 18.4356 23.6889 19.8169 22.5956 21.889V18.9403H16.2406V41.1746H22.5956V28.0784C22.5956 26.033 24.0078 24.3594 25.7617 24.3594C26.6074 24.3594 27.4185 24.7513 28.0166 25.4487C28.6146 26.1462 28.9506 27.0921 28.9506 28.0784V41.1746H35.3056ZM8.83778 14.7697C9.85267 14.7697 10.826 14.2995 11.5436 13.4626C12.2613 12.6257 12.6644 11.4905 12.6644 10.3069C12.6644 7.83646 10.9561 5.81757 8.83778 5.81757C7.81684 5.81757 6.83772 6.29056 6.11581 7.13248C5.3939 7.9744 4.98833 9.11628 4.98833 10.3069C4.98833 12.7774 6.71944 14.7697 8.83778 14.7697ZM12.0039 41.1746V18.9403H5.69444V41.1746H12.0039Z" fill="#DAFD45"/>
</svg>
