<svg width="35" height="35" viewBox="0 0 35 35" fill="none" xmlns="http://www.w3.org/2000/svg">
<path d="M17.5 0.416748C26.9351 0.416748 34.5833 8.06496 34.5833 17.5001C34.5833 26.9352 26.9351 34.5834 17.5 34.5834C8.06483 34.5834 0.416626 26.9352 0.416626 17.5001C0.416626 8.06496 8.06483 0.416748 17.5 0.416748ZM17.5 3.83341C13.8753 3.83341 10.3992 5.27329 7.83617 7.83629C5.27317 10.3993 3.83329 13.8755 3.83329 17.5001C3.83329 21.1247 5.27317 24.6009 7.83617 27.1639C10.3992 29.7269 13.8753 31.1667 17.5 31.1667C21.1246 31.1667 24.6008 29.7269 27.1638 27.1639C29.7267 24.6009 31.1666 21.1247 31.1666 17.5001C31.1666 13.8755 29.7267 10.3993 27.1638 7.83629C24.6008 5.27329 21.1246 3.83341 17.5 3.83341ZM9.81246 14.9376C10.4921 14.9376 11.1439 15.2076 11.6244 15.6881C12.105 16.1687 12.375 16.8205 12.375 17.5001C12.375 18.1797 12.105 18.8315 11.6244 19.312C11.1439 19.7926 10.4921 20.0626 9.81246 20.0626C9.13284 20.0626 8.48106 19.7926 8.0005 19.312C7.51994 18.8315 7.24996 18.1797 7.24996 17.5001C7.24996 16.8205 7.51994 16.1687 8.0005 15.6881C8.48106 15.2076 9.13284 14.9376 9.81246 14.9376ZM17.5 14.9376C18.1796 14.9376 18.8314 15.2076 19.3119 15.6881C19.7925 16.1687 20.0625 16.8205 20.0625 17.5001C20.0625 18.1797 19.7925 18.8315 19.3119 19.312C18.8314 19.7926 18.1796 20.0626 17.5 20.0626C16.8203 20.0626 16.1686 19.7926 15.688 19.312C15.2074 18.8315 14.9375 18.1797 14.9375 17.5001C14.9375 16.8205 15.2074 16.1687 15.688 15.6881C16.1686 15.2076 16.8203 14.9376 17.5 14.9376ZM25.1875 14.9376C25.8671 14.9376 26.5189 15.2076 26.9994 15.6881C27.48 16.1687 27.75 16.8205 27.75 17.5001C27.75 18.1797 27.48 18.8315 26.9994 19.312C26.5189 19.7926 25.8671 20.0626 25.1875 20.0626C24.5078 20.0626 23.8561 19.7926 23.3755 19.312C22.8949 18.8315 22.625 18.1797 22.625 17.5001C22.625 16.8205 22.8949 16.1687 23.3755 15.6881C23.8561 15.2076 24.5078 14.9376 25.1875 14.9376Z" fill="#DAFD45"/>
</svg>
