<svg width="41" height="46" viewBox="0 0 41 46" fill="none" xmlns="http://www.w3.org/2000/svg">
<path d="M8.24555 19.8506C11.5256 27.0016 16.81 32.8386 23.2561 36.5025L28.2672 30.9435C28.8822 30.2612 29.7933 30.0338 30.5906 30.337C33.1417 31.272 35.8978 31.7773 38.7222 31.7773C39.975 31.7773 41 32.9144 41 34.3042V43.1229C41 44.5126 39.975 45.6497 38.7222 45.6497C17.3339 45.6497 0 26.4204 0 2.69335C0 1.30358 1.025 0.166504 2.27778 0.166504H10.25C11.5028 0.166504 12.5278 1.30358 12.5278 2.69335C12.5278 5.8519 12.9833 8.88412 13.8261 11.7142C14.0767 12.5986 13.8944 13.5841 13.2567 14.2916L8.24555 19.8506Z" fill="#DAFD45"/>
</svg>
