<svg width="70" height="70" viewBox="0 0 70 70" fill="none" xmlns="http://www.w3.org/2000/svg">
<g clip-path="url(#clip0_23_139)">
<mask id="path-1-outside-1_23_139" maskUnits="userSpaceOnUse" x="-1" y="-1" width="72" height="72" fill="black">
<rect fill="white" x="-1" y="-1" width="72" height="72"/>
<path d="M13.8056 0C14.0642 0 14.3247 0 14.5833 0C14.6106 0.0563889 14.6242 0.124444 14.6669 0.165278C21.1964 6.69083 27.7297 13.2144 34.2631 19.7381C34.5042 19.9772 34.755 20.2086 35.0214 20.4633C40.9675 14.5133 46.83 8.64889 52.6925 2.78444C53.7464 1.73056 54.005 1.73056 55.0589 2.7825C59.1131 6.83667 63.1672 10.8908 67.2194 14.9469C68.2675 15.995 68.2694 16.2633 67.2194 17.3133C61.8606 22.6742 56.4997 28.0331 51.1389 33.3919C50.6178 33.9131 50.0811 34.4186 49.3558 35.1186C49.7739 35.4239 50.1239 35.6164 50.3961 35.8867C53.2447 38.7178 56.0778 41.5664 58.9225 44.4014C62.6111 48.0783 66.3094 51.7475 70.0019 55.4186V56.1964C67.7736 58.4519 65.5433 60.7075 63.3169 62.965C61.0069 65.3081 58.7008 67.6569 56.3908 70.0019H55.4186C55.3875 69.9475 55.3681 69.8814 55.3253 69.8386C49.2314 63.7506 43.1336 57.6644 37.0417 51.5744C36.3825 50.9153 35.7428 50.2328 35.0603 49.525C34.7433 49.8225 34.5042 50.0325 34.2806 50.2561C30.3858 54.1469 26.4989 58.0475 22.5847 61.9189C22.2133 62.2864 21.7078 62.6014 21.2081 62.7472C15.4078 64.4583 9.60167 66.1442 3.78389 67.7989C3.33861 67.9253 2.59972 67.9583 2.37806 67.7036C2.10389 67.3886 2.07278 66.6828 2.205 66.2219C3.85389 60.4042 5.54167 54.5961 7.25472 48.7958C7.4025 48.2961 7.71361 47.7906 8.08111 47.4192C11.7017 43.7578 15.3494 40.1236 18.9953 36.4856C19.4717 36.0111 19.9753 35.5619 20.5236 35.0486C19.1314 33.6603 17.85 32.3847 16.5706 31.1092C11.0464 25.5986 5.52417 20.0919 0 14.5833C0 14.2586 0 13.9358 0 13.6111C1.84139 11.8067 3.68861 10.0081 5.52611 8.19583C8.28917 5.46778 11.0464 2.73194 13.8056 0ZM53.1164 41.6267C51.8681 40.3492 50.7869 39.2447 49.5697 38.0003C48.7822 38.8403 47.9675 39.7094 47.1508 40.5786C46.6375 41.125 46.0483 41.6733 45.3503 40.9617C44.7028 40.3025 45.2064 39.7328 45.7217 39.2272C46.4625 38.5019 47.1917 37.765 47.9169 37.0242C48.0394 36.8978 48.1133 36.7228 48.1814 36.6119C44.3119 40.4794 40.4289 44.3606 36.61 48.1794C43.0111 54.5844 49.4647 61.0381 55.8794 67.4567C59.7217 63.6144 63.6047 59.7294 67.4256 55.9086C66.3658 54.8119 65.2731 53.6822 64.1103 52.4786C63.4803 53.1242 62.8464 53.7678 62.2203 54.4172C61.7594 54.8956 61.2286 55.1153 60.6939 54.6156C60.1067 54.0672 60.3381 53.5033 60.8494 53.025C61.5086 52.4067 62.1814 51.8019 62.8075 51.2283C61.5689 49.9839 60.4586 48.8678 59.2278 47.6311C58.3158 48.5897 57.4039 49.5989 56.4356 50.5497C55.8172 51.1564 54.9675 51.0378 54.8061 50.3067C54.7225 49.9314 54.9422 49.3617 55.2203 49.0564C56.1011 48.0881 57.0733 47.2053 57.9231 46.3731C56.7117 45.1344 55.6286 44.0261 54.3958 42.7661C53.8261 43.4 53.2467 44.0475 52.6633 44.695C52.1753 45.2375 51.5997 45.5525 51.0047 44.9342C50.4544 44.3644 50.7442 43.8083 51.2556 43.3397C51.8992 42.7525 52.5389 42.1614 53.1164 41.6306V41.6267ZM19.3686 7.875C17.5136 5.99278 15.7928 4.24667 14.1594 2.59C10.3017 6.44583 6.41861 10.3289 2.67167 14.0739C9.08056 20.4867 15.5419 26.9519 21.9644 33.3783C25.7542 29.5925 29.6236 25.7269 33.4581 21.8944C32.4547 20.8989 31.4281 19.8819 30.2886 18.7522C29.4622 19.6175 28.5911 20.5256 27.7258 21.4414C27.23 21.9644 26.6603 22.3164 26.0672 21.6864C25.4839 21.0681 25.8553 20.5061 26.3803 20.0219C27.3019 19.1722 28.2158 18.3147 29.0033 17.5817C27.7258 16.3022 26.6194 15.1919 25.4567 14.0233C24.8967 14.6008 24.2706 15.2561 23.6367 15.8997C23.17 16.3742 22.6372 16.5589 22.1103 16.0319C21.5775 15.4992 21.7778 14.9703 22.2639 14.5153C22.9406 13.8814 23.625 13.2592 24.1597 12.7672C22.8842 11.4858 21.7778 10.3756 20.6111 9.20306C19.8081 10.0294 18.9253 10.9317 18.0522 11.8436C17.5778 12.3394 17.0489 12.6564 16.4656 12.0886C15.8394 11.4781 16.1758 10.9297 16.7028 10.4319C17.6206 9.56667 18.5247 8.68778 19.3744 7.875H19.3686ZM51.4539 15.8569C39.095 28.2158 26.705 40.6039 14.4181 52.8889C15.4622 53.9408 16.5453 55.0317 17.4883 55.9825C29.8161 43.6586 42.2003 31.2783 54.5475 18.935C53.5481 17.9414 52.4767 16.8719 51.4539 15.855V15.8569ZM12.7225 51.38C25.1319 38.9744 37.5161 26.5961 49.9042 14.21C48.9786 13.2981 47.9928 12.3258 47.0594 11.4061C34.6792 23.7864 22.2794 36.1842 9.89333 48.5703C10.8189 49.4881 11.8028 50.4661 12.7225 51.3781V51.38ZM56.2333 20.5411C43.8219 32.9506 31.4358 45.3347 19.0847 57.6819C19.8703 58.4811 20.7006 59.3231 21.4764 60.1125C33.8567 47.7342 46.2428 35.35 58.6211 22.9736C57.8278 22.1647 56.9994 21.3189 56.2333 20.5392V20.5411ZM60.0619 21.3286C61.8314 19.5708 63.6358 17.78 65.2594 16.1661C61.4581 12.3472 57.5867 8.45833 53.83 4.68611C52.1131 6.37778 50.3242 8.14139 48.5936 9.84472C52.4494 13.7064 56.3344 17.5972 60.0619 21.3306V21.3286ZM19.4114 61.2403C15.8375 57.6606 12.3258 54.145 8.77139 50.5847C8.01694 53.1728 7.23917 55.7978 6.50417 58.4344C6.44778 58.6386 6.62083 58.9867 6.79389 59.1636C8.13556 60.5247 9.49278 61.8703 10.8753 63.1906C11.0678 63.3733 11.4586 63.5211 11.6939 63.4569C14.28 62.7433 16.8544 61.9831 19.4114 61.2422V61.2403Z"/>
</mask>
<path d="M13.8056 0C14.0642 0 14.3247 0 14.5833 0C14.6106 0.0563889 14.6242 0.124444 14.6669 0.165278C21.1964 6.69083 27.7297 13.2144 34.2631 19.7381C34.5042 19.9772 34.755 20.2086 35.0214 20.4633C40.9675 14.5133 46.83 8.64889 52.6925 2.78444C53.7464 1.73056 54.005 1.73056 55.0589 2.7825C59.1131 6.83667 63.1672 10.8908 67.2194 14.9469C68.2675 15.995 68.2694 16.2633 67.2194 17.3133C61.8606 22.6742 56.4997 28.0331 51.1389 33.3919C50.6178 33.9131 50.0811 34.4186 49.3558 35.1186C49.7739 35.4239 50.1239 35.6164 50.3961 35.8867C53.2447 38.7178 56.0778 41.5664 58.9225 44.4014C62.6111 48.0783 66.3094 51.7475 70.0019 55.4186V56.1964C67.7736 58.4519 65.5433 60.7075 63.3169 62.965C61.0069 65.3081 58.7008 67.6569 56.3908 70.0019H55.4186C55.3875 69.9475 55.3681 69.8814 55.3253 69.8386C49.2314 63.7506 43.1336 57.6644 37.0417 51.5744C36.3825 50.9153 35.7428 50.2328 35.0603 49.525C34.7433 49.8225 34.5042 50.0325 34.2806 50.2561C30.3858 54.1469 26.4989 58.0475 22.5847 61.9189C22.2133 62.2864 21.7078 62.6014 21.2081 62.7472C15.4078 64.4583 9.60167 66.1442 3.78389 67.7989C3.33861 67.9253 2.59972 67.9583 2.37806 67.7036C2.10389 67.3886 2.07278 66.6828 2.205 66.2219C3.85389 60.4042 5.54167 54.5961 7.25472 48.7958C7.4025 48.2961 7.71361 47.7906 8.08111 47.4192C11.7017 43.7578 15.3494 40.1236 18.9953 36.4856C19.4717 36.0111 19.9753 35.5619 20.5236 35.0486C19.1314 33.6603 17.85 32.3847 16.5706 31.1092C11.0464 25.5986 5.52417 20.0919 0 14.5833C0 14.2586 0 13.9358 0 13.6111C1.84139 11.8067 3.68861 10.0081 5.52611 8.19583C8.28917 5.46778 11.0464 2.73194 13.8056 0ZM53.1164 41.6267C51.8681 40.3492 50.7869 39.2447 49.5697 38.0003C48.7822 38.8403 47.9675 39.7094 47.1508 40.5786C46.6375 41.125 46.0483 41.6733 45.3503 40.9617C44.7028 40.3025 45.2064 39.7328 45.7217 39.2272C46.4625 38.5019 47.1917 37.765 47.9169 37.0242C48.0394 36.8978 48.1133 36.7228 48.1814 36.6119C44.3119 40.4794 40.4289 44.3606 36.61 48.1794C43.0111 54.5844 49.4647 61.0381 55.8794 67.4567C59.7217 63.6144 63.6047 59.7294 67.4256 55.9086C66.3658 54.8119 65.2731 53.6822 64.1103 52.4786C63.4803 53.1242 62.8464 53.7678 62.2203 54.4172C61.7594 54.8956 61.2286 55.1153 60.6939 54.6156C60.1067 54.0672 60.3381 53.5033 60.8494 53.025C61.5086 52.4067 62.1814 51.8019 62.8075 51.2283C61.5689 49.9839 60.4586 48.8678 59.2278 47.6311C58.3158 48.5897 57.4039 49.5989 56.4356 50.5497C55.8172 51.1564 54.9675 51.0378 54.8061 50.3067C54.7225 49.9314 54.9422 49.3617 55.2203 49.0564C56.1011 48.0881 57.0733 47.2053 57.9231 46.3731C56.7117 45.1344 55.6286 44.0261 54.3958 42.7661C53.8261 43.4 53.2467 44.0475 52.6633 44.695C52.1753 45.2375 51.5997 45.5525 51.0047 44.9342C50.4544 44.3644 50.7442 43.8083 51.2556 43.3397C51.8992 42.7525 52.5389 42.1614 53.1164 41.6306V41.6267ZM19.3686 7.875C17.5136 5.99278 15.7928 4.24667 14.1594 2.59C10.3017 6.44583 6.41861 10.3289 2.67167 14.0739C9.08056 20.4867 15.5419 26.9519 21.9644 33.3783C25.7542 29.5925 29.6236 25.7269 33.4581 21.8944C32.4547 20.8989 31.4281 19.8819 30.2886 18.7522C29.4622 19.6175 28.5911 20.5256 27.7258 21.4414C27.23 21.9644 26.6603 22.3164 26.0672 21.6864C25.4839 21.0681 25.8553 20.5061 26.3803 20.0219C27.3019 19.1722 28.2158 18.3147 29.0033 17.5817C27.7258 16.3022 26.6194 15.1919 25.4567 14.0233C24.8967 14.6008 24.2706 15.2561 23.6367 15.8997C23.17 16.3742 22.6372 16.5589 22.1103 16.0319C21.5775 15.4992 21.7778 14.9703 22.2639 14.5153C22.9406 13.8814 23.625 13.2592 24.1597 12.7672C22.8842 11.4858 21.7778 10.3756 20.6111 9.20306C19.8081 10.0294 18.9253 10.9317 18.0522 11.8436C17.5778 12.3394 17.0489 12.6564 16.4656 12.0886C15.8394 11.4781 16.1758 10.9297 16.7028 10.4319C17.6206 9.56667 18.5247 8.68778 19.3744 7.875H19.3686ZM51.4539 15.8569C39.095 28.2158 26.705 40.6039 14.4181 52.8889C15.4622 53.9408 16.5453 55.0317 17.4883 55.9825C29.8161 43.6586 42.2003 31.2783 54.5475 18.935C53.5481 17.9414 52.4767 16.8719 51.4539 15.855V15.8569ZM12.7225 51.38C25.1319 38.9744 37.5161 26.5961 49.9042 14.21C48.9786 13.2981 47.9928 12.3258 47.0594 11.4061C34.6792 23.7864 22.2794 36.1842 9.89333 48.5703C10.8189 49.4881 11.8028 50.4661 12.7225 51.3781V51.38ZM56.2333 20.5411C43.8219 32.9506 31.4358 45.3347 19.0847 57.6819C19.8703 58.4811 20.7006 59.3231 21.4764 60.1125C33.8567 47.7342 46.2428 35.35 58.6211 22.9736C57.8278 22.1647 56.9994 21.3189 56.2333 20.5392V20.5411ZM60.0619 21.3286C61.8314 19.5708 63.6358 17.78 65.2594 16.1661C61.4581 12.3472 57.5867 8.45833 53.83 4.68611C52.1131 6.37778 50.3242 8.14139 48.5936 9.84472C52.4494 13.7064 56.3344 17.5972 60.0619 21.3306V21.3286ZM19.4114 61.2403C15.8375 57.6606 12.3258 54.145 8.77139 50.5847C8.01694 53.1728 7.23917 55.7978 6.50417 58.4344C6.44778 58.6386 6.62083 58.9867 6.79389 59.1636C8.13556 60.5247 9.49278 61.8703 10.8753 63.1906C11.0678 63.3733 11.4586 63.5211 11.6939 63.4569C14.28 62.7433 16.8544 61.9831 19.4114 61.2422V61.2403Z" fill="black"/>
<path d="M13.8056 0C14.0642 0 14.3247 0 14.5833 0C14.6106 0.0563889 14.6242 0.124444 14.6669 0.165278C21.1964 6.69083 27.7297 13.2144 34.2631 19.7381C34.5042 19.9772 34.755 20.2086 35.0214 20.4633C40.9675 14.5133 46.83 8.64889 52.6925 2.78444C53.7464 1.73056 54.005 1.73056 55.0589 2.7825C59.1131 6.83667 63.1672 10.8908 67.2194 14.9469C68.2675 15.995 68.2694 16.2633 67.2194 17.3133C61.8606 22.6742 56.4997 28.0331 51.1389 33.3919C50.6178 33.9131 50.0811 34.4186 49.3558 35.1186C49.7739 35.4239 50.1239 35.6164 50.3961 35.8867C53.2447 38.7178 56.0778 41.5664 58.9225 44.4014C62.6111 48.0783 66.3094 51.7475 70.0019 55.4186V56.1964C67.7736 58.4519 65.5433 60.7075 63.3169 62.965C61.0069 65.3081 58.7008 67.6569 56.3908 70.0019H55.4186C55.3875 69.9475 55.3681 69.8814 55.3253 69.8386C49.2314 63.7506 43.1336 57.6644 37.0417 51.5744C36.3825 50.9153 35.7428 50.2328 35.0603 49.525C34.7433 49.8225 34.5042 50.0325 34.2806 50.2561C30.3858 54.1469 26.4989 58.0475 22.5847 61.9189C22.2133 62.2864 21.7078 62.6014 21.2081 62.7472C15.4078 64.4583 9.60167 66.1442 3.78389 67.7989C3.33861 67.9253 2.59972 67.9583 2.37806 67.7036C2.10389 67.3886 2.07278 66.6828 2.205 66.2219C3.85389 60.4042 5.54167 54.5961 7.25472 48.7958C7.4025 48.2961 7.71361 47.7906 8.08111 47.4192C11.7017 43.7578 15.3494 40.1236 18.9953 36.4856C19.4717 36.0111 19.9753 35.5619 20.5236 35.0486C19.1314 33.6603 17.85 32.3847 16.5706 31.1092C11.0464 25.5986 5.52417 20.0919 0 14.5833C0 14.2586 0 13.9358 0 13.6111C1.84139 11.8067 3.68861 10.0081 5.52611 8.19583C8.28917 5.46778 11.0464 2.73194 13.8056 0ZM53.1164 41.6267C51.8681 40.3492 50.7869 39.2447 49.5697 38.0003C48.7822 38.8403 47.9675 39.7094 47.1508 40.5786C46.6375 41.125 46.0483 41.6733 45.3503 40.9617C44.7028 40.3025 45.2064 39.7328 45.7217 39.2272C46.4625 38.5019 47.1917 37.765 47.9169 37.0242C48.0394 36.8978 48.1133 36.7228 48.1814 36.6119C44.3119 40.4794 40.4289 44.3606 36.61 48.1794C43.0111 54.5844 49.4647 61.0381 55.8794 67.4567C59.7217 63.6144 63.6047 59.7294 67.4256 55.9086C66.3658 54.8119 65.2731 53.6822 64.1103 52.4786C63.4803 53.1242 62.8464 53.7678 62.2203 54.4172C61.7594 54.8956 61.2286 55.1153 60.6939 54.6156C60.1067 54.0672 60.3381 53.5033 60.8494 53.025C61.5086 52.4067 62.1814 51.8019 62.8075 51.2283C61.5689 49.9839 60.4586 48.8678 59.2278 47.6311C58.3158 48.5897 57.4039 49.5989 56.4356 50.5497C55.8172 51.1564 54.9675 51.0378 54.8061 50.3067C54.7225 49.9314 54.9422 49.3617 55.2203 49.0564C56.1011 48.0881 57.0733 47.2053 57.9231 46.3731C56.7117 45.1344 55.6286 44.0261 54.3958 42.7661C53.8261 43.4 53.2467 44.0475 52.6633 44.695C52.1753 45.2375 51.5997 45.5525 51.0047 44.9342C50.4544 44.3644 50.7442 43.8083 51.2556 43.3397C51.8992 42.7525 52.5389 42.1614 53.1164 41.6306V41.6267ZM19.3686 7.875C17.5136 5.99278 15.7928 4.24667 14.1594 2.59C10.3017 6.44583 6.41861 10.3289 2.67167 14.0739C9.08056 20.4867 15.5419 26.9519 21.9644 33.3783C25.7542 29.5925 29.6236 25.7269 33.4581 21.8944C32.4547 20.8989 31.4281 19.8819 30.2886 18.7522C29.4622 19.6175 28.5911 20.5256 27.7258 21.4414C27.23 21.9644 26.6603 22.3164 26.0672 21.6864C25.4839 21.0681 25.8553 20.5061 26.3803 20.0219C27.3019 19.1722 28.2158 18.3147 29.0033 17.5817C27.7258 16.3022 26.6194 15.1919 25.4567 14.0233C24.8967 14.6008 24.2706 15.2561 23.6367 15.8997C23.17 16.3742 22.6372 16.5589 22.1103 16.0319C21.5775 15.4992 21.7778 14.9703 22.2639 14.5153C22.9406 13.8814 23.625 13.2592 24.1597 12.7672C22.8842 11.4858 21.7778 10.3756 20.6111 9.20306C19.8081 10.0294 18.9253 10.9317 18.0522 11.8436C17.5778 12.3394 17.0489 12.6564 16.4656 12.0886C15.8394 11.4781 16.1758 10.9297 16.7028 10.4319C17.6206 9.56667 18.5247 8.68778 19.3744 7.875H19.3686ZM51.4539 15.8569C39.095 28.2158 26.705 40.6039 14.4181 52.8889C15.4622 53.9408 16.5453 55.0317 17.4883 55.9825C29.8161 43.6586 42.2003 31.2783 54.5475 18.935C53.5481 17.9414 52.4767 16.8719 51.4539 15.855V15.8569ZM12.7225 51.38C25.1319 38.9744 37.5161 26.5961 49.9042 14.21C48.9786 13.2981 47.9928 12.3258 47.0594 11.4061C34.6792 23.7864 22.2794 36.1842 9.89333 48.5703C10.8189 49.4881 11.8028 50.4661 12.7225 51.3781V51.38ZM56.2333 20.5411C43.8219 32.9506 31.4358 45.3347 19.0847 57.6819C19.8703 58.4811 20.7006 59.3231 21.4764 60.1125C33.8567 47.7342 46.2428 35.35 58.6211 22.9736C57.8278 22.1647 56.9994 21.3189 56.2333 20.5392V20.5411ZM60.0619 21.3286C61.8314 19.5708 63.6358 17.78 65.2594 16.1661C61.4581 12.3472 57.5867 8.45833 53.83 4.68611C52.1131 6.37778 50.3242 8.14139 48.5936 9.84472C52.4494 13.7064 56.3344 17.5972 60.0619 21.3306V21.3286ZM19.4114 61.2403C15.8375 57.6606 12.3258 54.145 8.77139 50.5847C8.01694 53.1728 7.23917 55.7978 6.50417 58.4344C6.44778 58.6386 6.62083 58.9867 6.79389 59.1636C8.13556 60.5247 9.49278 61.8703 10.8753 63.1906C11.0678 63.3733 11.4586 63.5211 11.6939 63.4569C14.28 62.7433 16.8544 61.9831 19.4114 61.2422V61.2403Z" stroke="black" mask="url(#path-1-outside-1_23_139)"/>
<path d="M12.4152 9.85533L12.4152 9.85533C10.506 9.87 8.96508 11.4352 8.98605 13.3417L8.98605 13.3419C9.0091 15.2544 10.5659 16.7847 12.4755 16.77L12.4735 16.52L12.4755 16.77C14.3831 16.7554 15.9214 15.1918 15.9046 13.2823C15.8879 11.3726 14.3281 9.84066 12.4152 9.85533ZM12.4749 12.302C12.7949 12.3564 13.0259 12.4656 13.1757 12.6179C13.3252 12.7699 13.4194 12.9907 13.4136 13.3208L12.4749 12.302Z" fill="black" stroke="black" stroke-width="0.5"/>
</g>
<defs>
<clipPath id="clip0_23_139">
<rect width="70" height="70" fill="white"/>
</clipPath>
</defs>
</svg>
