<svg width="57" height="76" viewBox="0 0 57 76" fill="none" xmlns="http://www.w3.org/2000/svg">
<path d="M48.2631 45.1885C49.6098 48.5003 50.9306 51.7526 52.255 55.0049C53.7334 58.6345 55.2044 62.2659 56.7033 65.8881C57.0594 66.7467 57.1893 67.5626 56.5623 68.3264C55.9093 69.1199 55.0709 69.1515 54.123 68.9341C51.3016 68.2836 48.4653 67.6982 45.6401 67.0589C45.0243 66.9195 44.6607 67.018 44.3064 67.6183C42.9003 70.0139 41.4108 72.3611 39.975 74.7399C39.4909 75.5428 38.8769 76.0725 37.8882 75.9888C36.8939 75.9052 36.4042 75.2566 36.0554 74.3924C33.9704 69.2445 31.8669 64.104 29.767 58.9616C29.6335 58.6326 29.4814 58.3111 29.2755 57.8391C28.7969 58.995 28.3684 60.0135 27.951 61.0356C26.1461 65.4643 24.3393 69.8931 22.5474 74.3274C22.1894 75.212 21.7034 75.9145 20.6591 75.9925C19.6221 76.0687 19.0248 75.4666 18.5314 74.6452C17.129 72.3184 15.6747 70.0213 14.2983 67.6796C13.9403 67.0701 13.5953 66.8991 12.9089 67.0571C10.0578 67.7168 7.19 68.3078 4.33704 68.9564C3.45406 69.1571 2.67126 69.0902 2.05355 68.384C1.40245 67.6387 1.48592 66.8099 1.83652 65.9513C4.14968 60.296 6.45543 54.6388 8.76118 48.9816C8.86506 48.727 8.95966 48.4668 9.09136 48.1249C8.52003 47.9855 7.99136 47.8517 7.45898 47.7309C6.24953 47.454 5.72271 46.8779 5.64851 45.6215C5.54834 43.8932 5.53721 42.1592 5.39252 40.4346C5.35542 39.9811 5.06419 39.4514 4.72287 39.1411C3.51528 38.0371 2.23348 37.0168 0.985078 35.9594C-0.090814 35.0469 -0.254053 34.3128 0.348818 33.0193C1.05371 31.5102 1.81055 30.0216 2.46907 28.4921C2.63972 28.0962 2.66384 27.5257 2.5173 27.1224C1.9812 25.6431 1.34494 24.2027 0.749495 22.7457C0.0705698 21.0824 0.230099 20.4784 1.64174 19.4116C2.92168 18.4434 4.22759 17.5067 5.47229 16.4976C5.78022 16.2485 6.02878 15.7802 6.08072 15.3825C6.30518 13.6671 6.44616 11.9425 6.61867 10.2197C6.7411 8.9968 7.29759 8.3928 8.5089 8.18651C10.2415 7.89287 11.9796 7.63455 13.7029 7.29631C14.0683 7.22568 14.482 6.95063 14.6953 6.64399C15.6636 5.25014 16.5632 3.80797 17.4982 2.38996C18.2754 1.2117 18.9914 0.960805 20.3344 1.40312C21.8555 1.9049 23.3803 2.39554 24.8847 2.94564C25.5136 3.17423 26.0181 3.16494 26.6117 2.8044C27.9807 1.97181 29.396 1.21356 30.7984 0.438577C32.0635 -0.260205 32.8296 -0.137547 33.8443 0.91806C35.0222 2.14279 36.176 3.38982 37.3818 4.58667C37.6285 4.83198 38.0625 5.01225 38.4094 5.0104C40.1364 5.00482 41.8634 4.91562 43.5904 4.8803C44.9334 4.85243 45.5548 5.3189 45.9444 6.62726C46.4285 8.25342 46.8626 9.8963 47.3875 11.5094C47.5118 11.8904 47.8494 12.303 48.2019 12.4926C49.6951 13.2936 51.2348 14.0091 52.7484 14.7692C53.9598 15.3788 54.3085 16.0701 54.0544 17.3952C53.7279 19.0938 53.3476 20.7813 53.0545 22.4837C52.9915 22.8516 53.0972 23.3423 53.3087 23.6508C54.2844 25.0781 55.3324 26.4552 56.3378 27.8621C57.0817 28.9028 57.0576 29.7335 56.2599 30.7297C55.197 32.0548 54.0877 33.3427 53.0638 34.6975C52.8078 35.0357 52.6538 35.5803 52.7021 36.0021C52.8931 37.7193 53.1862 39.4273 53.4329 41.1389C53.598 42.28 53.1936 43.0308 52.1196 43.5159C50.8601 44.0846 49.5857 44.618 48.2649 45.1922L48.2631 45.1885ZM4.79893 22.0506C5.45559 23.6657 6.07701 25.2416 6.73924 26.799C7.06572 27.5666 7.04717 28.2746 6.67803 29.0217C6.02136 30.3487 5.42777 31.7072 4.75997 33.0286C4.51883 33.5081 4.58375 33.7906 4.99556 34.1195C6.07887 34.9874 7.10839 35.9241 8.19912 36.7827C9.01717 37.4257 9.40115 38.21 9.403 39.2526C9.40671 40.5498 9.4939 41.847 9.54955 43.1442C9.59036 44.1125 10.2025 44.5715 11.1708 44.315C13.2243 43.7705 14.5135 45.3223 16.0828 46.0973C16.2702 46.1902 16.3518 46.5006 16.4761 46.7125C17.1865 47.9409 17.9118 49.1619 18.5963 50.4071C18.8337 50.8401 19.0842 50.946 19.5572 50.8011C20.6758 50.4591 21.8425 50.2565 22.9333 49.844C24.4006 49.2883 25.6582 49.4555 26.8955 50.4312C27.4557 50.8736 28.168 51.13 28.8284 51.4329C29.2662 51.6337 29.793 51.682 30.1733 51.9496C30.6278 52.2693 30.906 52.2321 31.2826 51.8641C32.1878 50.9795 33.1505 50.1543 34.0428 49.2585C34.6827 48.6155 35.4025 48.3609 36.2947 48.452C37.6748 48.5932 39.0624 48.6657 40.4406 48.8162C41.0806 48.8869 41.4386 48.7623 41.6408 48.0673C42.0192 46.7663 42.5386 45.5063 42.9504 44.2128C43.2435 43.2947 43.7796 42.6796 44.6922 42.3246C46.013 41.8135 47.2966 41.2058 48.6118 40.6817C49.0886 40.4922 49.2852 40.2636 49.1924 39.7265C48.9661 38.4181 48.8511 37.0893 48.5803 35.7921C48.3373 34.6306 48.5729 33.7014 49.3705 32.813C50.413 31.6515 51.3591 30.4026 52.3496 29.1853C51.3442 27.8007 50.4316 26.4794 49.4466 25.2156C48.8177 24.4109 48.6823 23.5709 48.9012 22.6082C49.1999 21.2831 49.4484 19.9487 49.7508 18.6236C49.8788 18.0624 49.7693 17.726 49.198 17.4695C47.8791 16.8748 46.5992 16.1928 45.2896 15.5739C44.5401 15.2189 44.082 14.6633 43.8612 13.8641C43.4698 12.4368 43.0209 11.0225 42.6499 9.58965C42.5145 9.06742 42.2826 8.90574 41.7558 8.93361C40.3386 9.00609 38.9195 9.00238 37.5023 9.07671C36.5748 9.12503 35.8625 8.81839 35.1929 8.16049C34.0038 6.99524 32.7294 5.91547 31.3846 4.70375C30.2363 5.34492 28.7746 6.13291 27.3389 6.97108C26.5616 7.42454 25.8066 7.50445 24.9571 7.20153C23.3952 6.64399 21.8166 6.13663 20.186 5.58838C19.2752 6.98408 18.3552 8.33147 17.5056 9.72346C16.9769 10.5876 16.2572 11.03 15.2703 11.1601C13.957 11.3347 12.6548 11.5931 11.3415 11.7641C10.6959 11.8477 10.3917 12.0949 10.3528 12.7881C10.2767 14.1447 10.0689 15.494 9.99845 16.8488C9.94837 17.8338 9.531 18.5289 8.75005 19.0938C7.42744 20.0491 6.13637 21.0471 4.79893 22.0525V22.0506ZM45.6364 49.3645C45.5622 49.3645 45.488 49.3645 45.4138 49.3645C45.1931 49.9945 44.9761 50.6264 44.7498 51.2564C44.2637 52.6131 43.6739 53.0294 42.2622 52.942C40.8765 52.8547 39.4872 52.7822 38.1145 52.5926C36.9978 52.4384 36.0888 52.5889 35.3301 53.5219C34.8274 54.1389 34.1967 54.6611 33.5753 55.1647C32.9947 55.6368 32.8667 56.0624 33.1821 56.8095C34.8237 60.7048 36.3912 64.6299 37.9883 68.5438C38.1089 68.8393 38.2517 69.1237 38.428 69.5065C38.632 69.2073 38.7748 69.014 38.901 68.8096C39.886 67.2057 40.8654 65.5963 41.8523 63.9924C42.6369 62.7175 43.2175 62.4629 44.7034 62.7714C45.6995 62.9777 46.6882 63.2156 47.6825 63.4293C48.9791 63.7062 50.2776 63.9739 51.7171 64.2731C49.6395 59.1809 47.638 54.2727 45.6364 49.3645ZM13.1185 48.8999C11.002 54.0887 8.9541 59.1121 6.83756 64.3047C9.1971 63.7899 11.3563 63.3271 13.5137 62.8476C15.4187 62.4239 15.8528 62.5967 16.8619 64.2415C17.9211 65.9661 18.9803 67.6926 20.0432 69.4229C20.1619 69.3392 20.238 69.3151 20.2565 69.2686C22.1746 64.589 24.0908 59.9094 25.9977 55.2261C26.0608 55.0718 26.0905 54.8469 26.0255 54.7076C25.8104 54.2485 24.3022 53.6612 23.7773 53.8044C22.1727 54.2392 20.57 54.6815 18.9655 55.1127C17.4388 55.5234 16.7858 55.2502 15.9863 53.8694C15.0626 52.2748 14.1425 50.6766 13.1204 48.9017L13.1185 48.8999Z" fill="black"/>
<path d="M28.0493 46.2849C18.0324 46.2329 10.0671 38.1467 10.1246 28.0924C10.1821 18.1998 18.2976 10.1861 28.2088 10.2363C38.1831 10.2865 46.1651 18.434 46.0872 28.4846C46.0111 38.34 37.9067 46.337 28.0474 46.2849H28.0493ZM28.1012 43.6329C36.5062 43.6478 43.429 36.7417 43.4512 28.3173C43.4735 19.8483 36.5711 12.9051 28.1124 12.8883C19.7223 12.8716 12.7772 19.8074 12.7642 28.2114C12.7512 36.6971 19.6332 43.6162 28.0994 43.6311L28.1012 43.6329Z" fill="black"/>
<path d="M21.0838 36.4557C21.3547 34.8909 21.5958 33.2387 21.9427 31.6107C22.1171 30.7911 21.9501 30.2355 21.3176 29.6723C20.1656 28.6465 19.1046 27.5202 17.9897 26.4516C17.5093 25.9907 17.0993 25.4239 17.4573 24.831C17.717 24.4017 18.2995 24.0133 18.7985 23.913C20.3363 23.6026 21.9 23.413 23.4619 23.2272C24.1909 23.1398 24.6677 22.8889 24.983 22.1586C25.6081 20.7164 26.2963 19.2947 27.0736 17.9287C27.3407 17.4585 27.9046 16.9958 28.4166 16.8694C29.0788 16.7058 29.4943 17.2913 29.7819 17.8878C30.5183 19.4173 31.2529 20.9469 32.0468 22.4466C32.2026 22.7403 32.5903 23.0376 32.9131 23.0952C34.5195 23.3814 36.1426 23.5822 37.7583 23.8275C38.4298 23.9297 39.1421 24.0059 39.4055 24.7976C39.6782 25.6135 39.2015 26.1338 38.6672 26.6449C37.5505 27.7117 36.4728 28.8174 35.3394 29.8656C34.8831 30.2875 34.7254 30.6852 34.8571 31.3171C35.178 32.8577 35.4192 34.4151 35.6752 35.9688C35.7883 36.649 35.8773 37.3422 35.2003 37.8217C34.5232 38.3012 33.9129 37.976 33.3026 37.6526C31.8873 36.8999 30.4589 36.1732 29.0584 35.3927C28.5984 35.1362 28.2478 35.1511 27.7915 35.402C26.2518 36.2476 24.6974 37.069 23.1262 37.8533C22.0188 38.4071 21.0189 37.7399 21.082 36.4557H21.0838ZM35.1669 26.1784C33.9908 25.9963 32.8853 25.7714 31.7667 25.6711C30.8893 25.5912 30.3588 25.186 30.0045 24.4073C29.5277 23.361 28.9954 22.337 28.4222 21.1699C27.8174 22.3965 27.2813 23.4372 26.7898 24.5002C26.4577 25.2176 25.9439 25.5763 25.1555 25.6636C24.0054 25.7919 22.8646 25.9982 21.6941 26.1747C22.4825 27.0017 23.1484 27.8213 23.9368 28.4978C24.7771 29.217 24.9719 30.0236 24.7419 31.0569C24.5156 32.0679 24.3783 33.0993 24.1724 34.2888C25.367 33.6625 26.4151 33.1495 27.426 32.5734C28.1198 32.1794 28.7468 32.198 29.4313 32.5771C30.4385 33.1347 31.468 33.6476 32.6627 34.2702C32.4345 32.9377 32.2583 31.8151 32.0431 30.6982C31.8966 29.9381 32.0487 29.3304 32.6367 28.7766C33.4844 27.9774 34.2672 27.1095 35.1632 26.1803L35.1669 26.1784Z" fill="black"/>
</svg>
