<svg width="76" height="69" viewBox="0 0 76 69" fill="none" xmlns="http://www.w3.org/2000/svg">
<g clip-path="url(#clip0_29_4)">
<path d="M27.3888 25.418C27.8923 29.5868 28.3861 33.6698 28.8816 37.767C34.3301 33.9289 40.2128 33.1499 46.5251 35.6302C46.7101 35.3249 46.8839 35.0228 47.0737 34.7318C51.3542 28.14 57.4574 24.8059 65.3816 24.8965C70.5324 24.9553 75.1138 29.1321 75.8538 34.2724C75.9471 34.9258 75.9905 35.5936 75.9905 36.2534C76.0002 42.1871 76.0018 48.1191 75.9953 54.0527C75.9889 59.0976 72.9936 63.1678 68.1806 64.8245C59.132 67.9361 49.8132 69.1619 40.2579 68.9822C27.2923 68.7374 15.1567 65.54 3.86249 59.2391C0.693482 57.4711 -0.61273 54.288 0.270411 50.814C0.555139 49.6963 0.788392 48.5245 0.770697 47.3814C0.695091 42.804 1.83722 38.4777 3.3799 34.2294C5.59339 28.1368 8.09321 22.1745 11.6354 16.6909C14.3749 12.4505 17.5246 8.53449 21.1569 5.00961C24.6959 1.57376 28.9813 -0.0893154 33.9408 0.00290078C36.0368 0.0426492 37.972 0.675443 39.7302 1.80589C41.0735 2.66922 42.4054 3.54846 43.7293 4.442C45.79 5.83478 46.4913 8.42956 45.4055 10.6555C45.2575 10.9576 45.2511 11.1483 45.4554 11.4329C46.8855 13.422 46.6731 16.0151 44.9358 17.7545C42.8526 19.8389 40.7517 21.9058 38.6509 23.9728C37.6664 24.941 36.4695 25.4212 35.0781 25.4196C32.7665 25.418 30.4549 25.4196 28.1432 25.4196C27.9406 25.4196 27.7379 25.4196 27.3904 25.4196L27.3888 25.418ZM42.6017 13.8799C42.399 14.0659 42.2494 14.1963 42.1094 14.3346C41.1716 15.2567 40.2579 16.2059 39.2927 17.1011C37.2417 19.0058 34.0598 18.9343 32.0715 16.9691C30.117 15.0373 30.0623 11.8845 31.9621 9.87004C32.4705 9.33105 33.0029 8.81432 33.5434 8.30554C34.314 7.57894 35.4255 7.58689 36.1559 8.30554C36.8797 9.01624 36.883 10.1197 36.1494 10.8876C35.7151 11.3423 35.2534 11.7732 34.811 12.2216C34.1306 12.91 34.0904 13.7686 34.7049 14.3855C35.3097 14.9928 36.2186 14.9769 36.8942 14.3139C38.5222 12.7176 40.1437 11.115 41.7539 9.50276C42.4553 8.80001 42.3636 7.95098 41.5335 7.39451C40.2531 6.53753 38.9678 5.68692 37.6728 4.8522C36.4068 4.03657 35.0009 3.63272 33.4936 3.64703C29.7454 3.68201 26.4912 4.96191 23.8128 7.56145C20.2207 11.0498 17.1048 14.9213 14.4505 19.1521C10.8424 24.9013 8.33289 31.137 6.16928 37.5222C5.12206 40.6114 4.48825 43.7674 4.47538 47.0554C4.46895 48.5881 4.1987 50.1383 3.88019 51.6456C3.43942 53.722 3.96545 55.1037 5.8379 56.1419C15.8613 61.7003 26.6086 64.7371 38.0943 65.2491C47.9681 65.6895 57.6231 64.6083 66.9902 61.3633C70.2798 60.2233 72.3003 57.4981 72.3019 54.0368C72.3035 49.4674 72.3019 44.8979 72.3019 40.3284C72.3019 38.8545 72.3148 37.3807 72.2987 35.9068C72.2536 31.8048 68.9543 28.5136 64.8105 28.5406C59.2398 28.5772 54.7163 30.8031 51.2754 35.1341C50.7076 35.8496 50.2411 36.6445 49.744 37.3791C50.5065 38.0246 51.2095 38.5715 51.8577 39.1757C52.6621 39.9246 52.6926 41.0471 51.98 41.7959C51.2561 42.5575 50.1059 42.5655 49.2855 41.7959C45.9766 38.694 42.0483 37.3696 37.5473 38.0357C33.0801 38.6971 29.6618 40.9867 27.4901 44.9647C26.1035 47.5022 24.1297 49.3561 21.2937 50.2083C20.2288 50.5279 19.2234 49.9952 18.9322 49.0158C18.6346 48.0126 19.1574 47.0697 20.2159 46.7184C22.1446 46.0808 23.5136 44.8248 24.3629 43.0138C25.0466 41.5574 25.2606 39.9993 25.1126 38.4253C24.8311 35.4394 24.4739 32.4582 24.1233 29.4787C23.8787 27.3911 23.5779 25.3099 23.8498 23.2032C24.046 21.6864 24.5512 20.3032 25.6756 19.203C26.2129 18.6767 26.8644 18.5272 27.5818 18.7625C28.3041 18.9994 28.7658 19.5178 28.798 20.2587C28.8189 20.7452 28.6307 21.2397 28.5309 21.7564C28.4843 21.7341 28.5148 21.7612 28.5454 21.7612C30.7267 21.7643 32.908 21.7866 35.0877 21.7469C35.4352 21.7405 35.8567 21.5354 36.1124 21.2874C38.1634 19.3015 40.1791 17.2823 42.214 15.279C42.5872 14.9101 42.7625 14.5015 42.6049 13.8814L42.6017 13.8799Z" fill="black"/>
</g>
<defs>
<clipPath id="clip0_29_4">
<rect width="76" height="69" fill="white"/>
</clipPath>
</defs>
</svg>
