<svg width="79" height="82" viewBox="0 0 79 82" fill="none" xmlns="http://www.w3.org/2000/svg">
<g clip-path="url(#clip0_23_149)">
<path d="M39.4428 68.2894C37.0015 68.2894 34.5603 68.2894 32.1191 68.2894C29.5426 68.2894 28.5211 67.2808 28.5192 64.7351C28.5192 63.736 28.5061 62.735 28.5211 61.7358C28.553 59.5594 27.7361 57.7617 26.2845 56.1495C24.4893 54.155 22.6959 52.1417 21.0866 49.9971C14.4108 41.106 16.8558 31.3825 22.1739 25.0427C28.1155 17.9605 35.8804 15.3511 44.8266 17.5856C53.7822 19.8219 59.2336 25.845 61.303 34.8336C62.5537 40.2718 61.1622 45.1945 57.966 49.6185C56.3436 51.8642 54.5033 53.9675 52.6367 56.0221C51.1081 57.7054 50.2311 59.5613 50.2837 61.8427C50.3081 62.9037 50.2931 63.9666 50.2856 65.0294C50.2705 67.1496 49.1532 68.28 47.0462 68.2875C44.5111 68.295 41.976 68.2894 39.4409 68.2894H39.4428ZM46.8585 64.8251C46.8585 63.8166 46.8772 62.8868 46.8547 61.957C46.7777 58.6521 47.9983 55.9152 50.2724 53.5232C51.9475 51.7611 53.5324 49.8922 54.9671 47.9314C57.3783 44.6358 58.7172 40.9991 58.1688 36.7926C57.0966 28.5631 50.9053 22.0864 42.5112 20.5343C34.7049 19.0909 26.4254 23.1512 22.7016 30.3609C19.682 36.2058 19.5899 41.9983 23.5447 47.5039C24.9437 49.4516 26.4291 51.3768 28.1173 53.0715C30.7989 55.7634 32.1754 58.8564 31.9538 62.6562C31.9125 63.3629 31.9482 64.0715 31.9482 64.8251H46.8603H46.8585Z" fill="black"/>
<path d="M39.3545 72.8465C36.4476 72.8465 33.5388 72.8521 30.6318 72.8465C29.3061 72.8427 28.5099 72.1791 28.5268 71.1218C28.5437 70.0964 29.3342 69.4272 30.5849 69.4253C36.4626 69.4197 42.3422 69.4178 48.2199 69.4272C49.7767 69.4291 50.6875 70.6157 50.1128 71.8473C49.7466 72.6309 49.0856 72.8558 48.2669 72.8521C45.2961 72.8371 42.3253 72.8465 39.3564 72.8465H39.3545Z" fill="black"/>
<path d="M39.4634 74.0161C41.6849 74.0161 43.9064 73.9899 46.1279 74.0274C47.5532 74.0499 48.3757 75.2627 47.8161 76.4381C47.4875 77.1298 46.8941 77.4429 46.1467 77.4429C41.6717 77.4485 37.1987 77.456 32.7237 77.4391C31.5726 77.4354 30.7895 76.6743 30.8139 75.6845C30.8364 74.7247 31.582 74.033 32.7049 74.0199C34.9565 73.9955 37.2099 74.0124 39.4634 74.0143V74.0161Z" fill="black"/>
<path d="M37.7714 5.06331C37.7714 4.00229 37.7451 2.94128 37.777 1.88214C37.8146 0.688025 38.5 -0.0168192 39.5366 5.20266e-05C40.56 0.0169233 41.2154 0.740513 41.2267 1.9515C41.2473 4.07353 41.2473 6.19368 41.2229 8.31571C41.2098 9.48733 40.5 10.2559 39.5084 10.2634C38.5188 10.2728 37.8033 9.50045 37.7752 8.33821C37.7489 7.2472 37.7695 6.15432 37.7695 5.06331H37.7714Z" fill="black"/>
<path d="M19.5974 58.8133C19.2181 59.4525 19.0284 59.9586 18.6848 60.3167C17.2107 61.8445 15.7008 63.3385 14.1873 64.8269C13.3479 65.6536 12.3282 65.7174 11.609 65.0275C10.8353 64.2871 10.8879 63.2917 11.7742 62.3975C13.2915 60.8678 14.8164 59.3457 16.3468 57.8291C16.9027 57.278 17.6012 56.9799 18.2942 57.4167C18.7918 57.7298 19.1298 58.294 19.5993 58.8133H19.5974Z" fill="black"/>
<path d="M61.2129 57.0081C61.8176 57.3511 62.3096 57.5161 62.6457 57.8404C64.2213 59.355 65.763 60.9053 67.2953 62.4631C68.1253 63.3067 68.1385 64.3133 67.3873 65.0313C66.6907 65.6968 65.6672 65.6611 64.8766 64.8869C63.3161 63.3573 61.7782 61.8032 60.2327 60.2567C59.6712 59.6943 59.4139 58.9839 59.8158 58.3053C60.1144 57.7991 60.7021 57.4636 61.211 57.0081H61.2129Z" fill="black"/>
<path d="M12.6981 8.52197C13.3009 8.88189 13.7798 9.06185 14.1178 9.38803C15.6689 10.8821 17.1881 12.4099 18.7017 13.9433C19.511 14.7625 19.5505 15.8235 18.8463 16.519C18.1233 17.2332 17.1149 17.1863 16.2679 16.3521C14.7093 14.8187 13.1657 13.2722 11.6315 11.7163C11.0813 11.1595 10.8146 10.4397 11.2653 9.76295C11.5921 9.27368 12.178 8.95875 12.7 8.52197H12.6981Z" fill="black"/>
<path d="M61.2053 17.1694C60.7715 16.8245 60.0936 16.5433 59.9077 16.0691C59.7068 15.5536 59.7293 14.6481 60.0617 14.2807C61.6729 12.5017 63.3987 10.824 65.1319 9.15935C65.7798 8.53698 66.8126 8.64571 67.4248 9.26057C68.037 9.87544 68.1797 10.8146 67.5619 11.4651C65.8868 13.2291 64.146 14.9331 62.4015 16.6296C62.1555 16.8695 61.7386 16.9351 61.2053 17.1676V17.1694Z" fill="black"/>
<path d="M73.8321 35.4335C74.9569 35.4335 76.0818 35.4129 77.2066 35.4391C78.2526 35.4635 78.9737 36.1533 78.9981 37.0944C79.0244 38.0598 78.2638 38.8227 77.1878 38.834C74.9701 38.8546 72.7504 38.8546 70.5308 38.834C69.4285 38.8246 68.7017 38.1104 68.7036 37.1225C68.7074 36.1365 69.4304 35.4672 70.5496 35.4354C71.111 35.4204 71.6744 35.4316 72.2378 35.4297C72.7692 35.4297 73.3006 35.4297 73.8321 35.4297V35.4335Z" fill="black"/>
<path d="M5.17357 38.8395C4.08065 38.8395 2.98585 38.8527 1.89293 38.8358C0.751189 38.8171 -0.0300037 38.0766 0.00192003 37.0774C0.0338438 36.112 0.783113 35.4428 1.90232 35.4353C4.05811 35.4203 6.21578 35.4184 8.37158 35.4353C9.56778 35.4447 10.2983 36.1139 10.2945 37.1374C10.2889 38.1553 9.54149 38.8246 8.36219 38.8395C7.29931 38.8527 6.23644 38.8414 5.17544 38.8414L5.17357 38.8395Z" fill="black"/>
<path d="M39.4165 81.9907C38.6672 81.9907 37.9161 82.0113 37.1668 81.9851C36.1058 81.9495 35.4336 81.2821 35.4242 80.3036C35.4148 79.3288 36.0983 78.6146 37.1368 78.5958C38.6353 78.5677 40.1357 78.5696 41.6362 78.5958C42.684 78.6127 43.3713 79.3044 43.3807 80.2773C43.3882 81.2559 42.714 81.9457 41.6662 81.9851C40.9169 82.0132 40.1658 81.9907 39.4165 81.9907Z" fill="black"/>
<path d="M54.8957 36.2264C54.8206 36.6819 54.8262 37.1693 54.6553 37.5855C54.3455 38.3372 53.6958 38.6371 52.9014 38.5228C52.0094 38.3934 51.5494 37.8179 51.4311 36.9462C51.3146 36.0839 51.2827 35.1991 51.0649 34.3631C50.0076 30.2746 46.4678 27.4158 42.252 27.1834C42.0023 27.1703 41.7506 27.159 41.5065 27.114C40.5563 26.9416 39.9592 26.2573 39.9817 25.3857C40.0042 24.4821 40.6915 23.7248 41.6774 23.7285C42.6389 23.7323 43.6154 23.8448 44.5581 24.0378C50.2687 25.2132 54.6422 30.4208 54.8995 36.2264H54.8957Z" fill="black"/>
</g>
<defs>
<clipPath id="clip0_23_149">
<rect width="79" height="82" fill="white"/>
</clipPath>
</defs>
</svg>
